# xmcd
#
# Track frame offsets:
#	182
#	13820
#	25677
#	49017
#	60335
#	79035
#	93000
#	103667
#	114867
#	126697
#	141140
#	155500
#	169167
#	185067
#	205335
#	219290
#	233345
#
# Disc length: 3416 seconds
#
# Revision: 4
# Processed by: cddbd v1.5.2PL0 Copyright (c) Steve Scherf et al.
# Submitted via: audiograbber 1.83.01
#
DISCID=da0d5611
DTITLE=Various Artist - Legends Of Guitar Electric Blues Volume 1
DYEAR=1991
DGENRE=Blues
TTITLE0=Muddy Waters - Rollin' And Tumblin'
TTITLE1=Otis Rush - All Your Love (I Miss Lovin')
TTITLE2=B.B. King - You've Done Lost Your Good Thing Now
TTITLE3=T-Bone Walker - Strollin' With Bones
TTITLE4=Bobby Blue Bland - Stormy Monday Blues
TTITLE5=Howlin' Wolf - 300 Pounds Of Joy
TTITLE6=Eddie Taylor - Find My Baby
TTITLE7=Pee Wee Crayton - Texas Hop
TTITLE8=Little Junior's Blue Flames - Love My Baby
TTITLE9=Albert King - Personal Manager
TTITLE10=Elmore James - Dust My Blues
TTITLE11=Elmore James - The Story Of My Life
TTITLE12=Charles Musselwhite's South Side Band - Help Me
TTITLE13=Johnny Winter - Mean Town Blues
TTITLE14=Lightning Hopkins - Tell Me Pretty Mama
TTITLE15=Earl Hooker - The Hucklebuck
TTITLE16=Hound Dog Taylor - See Me In The Evening
EXTD=
EXTT0=
EXTT1=
EXTT2=
EXTT3=
EXTT4=
EXTT5=
EXTT6=
EXTT7=
EXTT8=
EXTT9=
EXTT10=
EXTT11=
EXTT12=
EXTT13=
EXTT14=
EXTT15=
EXTT16=
PLAYORDER=
